<svg xmlns="http://www.w3.org/2000/svg" viewBox="0 0 420 300" role="img" aria-labelledby="title desc">
  <title id="title">Garden pattern dinnerware</title>
  <desc id="desc">White plates with green botanical details.</desc>
  <rect width="420" height="300" fill="#f4f8f1"/><circle cx="58" cy="62" r="34" fill="#dfeedd"/><circle cx="356" cy="238" r="42" fill="#e6f0df"/><ellipse cx="210" cy="216" rx="140" ry="38" fill="#cad8c8"/><ellipse cx="210" cy="191" rx="137" ry="54" fill="#fff"/><ellipse cx="210" cy="191" rx="101" ry="31" fill="#f8fbf7"/><ellipse cx="255" cy="130" rx="82" ry="30" fill="#fff"/><circle cx="151" cy="142" r="47" fill="#fff"/><path d="M174 102c14 28 17 58 7 90" fill="none" stroke="#548a58" stroke-linecap="round" stroke-width="7"/><path d="M178 124c25-18 46-18 63 0-20 16-42 16-63 0z" fill="#78ad69"/><path d="M165 147c-25-14-46-11-63 8 23 12 44 10 63-8z" fill="#8fbd72"/><path d="M190 167c26-12 46-7 60 15-24 10-44 5-60-15z" fill="#548a58"/><circle cx="231" cy="124" r="8" fill="#e2a646"/><circle cx="118" cy="154" r="7" fill="#d9817d"/>
</svg>
