<svg xmlns="http://www.w3.org/2000/svg" viewBox="0 0 420 300" role="img" aria-labelledby="title desc">
  <title id="title">White Arcopal dinnerware with lotus detail</title>
  <desc id="desc">Stacked white plates and bowls with soft lotus accents.</desc>
  <defs><linearGradient id="bg" x1="0" x2="1" y1="0" y2="1"><stop offset="0" stop-color="#f8fbfb"/><stop offset="1" stop-color="#e6f0ec"/></linearGradient></defs>
  <rect width="420" height="300" fill="url(#bg)"/><ellipse cx="212" cy="216" rx="144" ry="38" fill="#cedbd7"/><ellipse cx="210" cy="194" rx="142" ry="54" fill="#fff"/><ellipse cx="210" cy="190" rx="108" ry="33" fill="#f2f7f6"/><ellipse cx="238" cy="132" rx="85" ry="30" fill="#f6fbfa"/><ellipse cx="238" cy="126" rx="64" ry="20" fill="#fff"/><circle cx="146" cy="143" r="48" fill="#fff"/><circle cx="146" cy="143" r="34" fill="#f6fbfa"/><path d="M181 106c24 13 37 31 38 54-23-2-41-16-55-42 12 1 18-3 17-12z" fill="#62a99d" opacity=".8"/><path d="M198 98c18 20 24 40 16 62-20-9-32-27-38-56 11 4 18 2 22-6z" fill="#f1c36d" opacity=".85"/><path d="M226 103c4 28-3 49-23 63-12-19-11-41 3-68 7 9 14 11 20 5z" fill="#d9817d" opacity=".78"/>
</svg>
